<?xml version="1.0" encoding="UTF-8" standalone="no"?>
<!DOCTYPE svg PUBLIC "-//W3C//DTD SVG 1.1//EN"
 "http://www.w3.org/Graphics/SVG/1.1/DTD/svg11.dtd">
<!-- Generated by graphviz version 3.0.0 (20220226.1711)
 -->
<!-- Title: G Pages: 1 -->
<svg width="379pt" height="1052pt"
 viewBox="0.00 0.00 379.00 1052.00" xmlns="http://www.w3.org/2000/svg" xmlns:xlink="http://www.w3.org/1999/xlink">
<g id="graph0" class="graph" transform="scale(1 1) rotate(0) translate(4 1048)">
<title>G</title>
<polygon fill="white" stroke="transparent" points="-4,4 -4,-1048 375,-1048 375,4 -4,4"/>
<!-- A -->
<g id="node1" class="node">
<title>A</title>
<polygon fill="none" stroke="black" points="371,-1044 155,-1044 155,-972 371,-972 371,-1044"/>
<text text-anchor="middle" x="263" y="-1011.8" font-family="Times New Roman,serif" font-size="14.00">Parameter </text>
<text text-anchor="middle" x="263" y="-996.8" font-family="Times New Roman,serif" font-size="14.00">Estimation</text>
</g>
<!-- B -->
<g id="node2" class="node">
<title>B</title>
<polygon fill="none" stroke="black" points="303,-936 87,-936 87,-864 303,-864 303,-936"/>
<text text-anchor="middle" x="195" y="-896.3" font-family="Times New Roman,serif" font-size="14.00">Parameter Estimation</text>
</g>
<!-- A&#45;&gt;B -->
<g id="edge1" class="edge">
<title>A&#45;&gt;B</title>
<path fill="none" stroke="black" d="M229,-971.74C229,-971.74 229,-946.35 229,-946.35"/>
<polygon fill="black" stroke="black" points="232.5,-946.35 229,-936.35 225.5,-946.35 232.5,-946.35"/>
</g>
<!-- C -->
<g id="node3" class="node">
<title>C</title>
<polygon fill="none" stroke="black" points="216,-828 0,-828 0,-756 216,-756 216,-828"/>
<text text-anchor="middle" x="108" y="-788.3" font-family="Times New Roman,serif" font-size="14.00">Compute Sth.</text>
</g>
<!-- B&#45;&gt;C -->
<g id="edge2" class="edge">
<title>B&#45;&gt;C</title>
<path fill="none" stroke="black" d="M151.5,-863.74C151.5,-863.74 151.5,-838.35 151.5,-838.35"/>
<polygon fill="black" stroke="black" points="155,-838.35 151.5,-828.35 148,-838.35 155,-838.35"/>
</g>
<!-- D -->
<g id="node4" class="node">
<title>D</title>
<polygon fill="none" stroke="black" points="216,-720 0,-720 0,-648 216,-648 216,-720"/>
<text text-anchor="middle" x="108" y="-680.3" font-family="Times New Roman,serif" font-size="14.00">Compute Sth.</text>
</g>
<!-- C&#45;&gt;D -->
<g id="edge3" class="edge">
<title>C&#45;&gt;D</title>
<path fill="none" stroke="black" d="M108,-755.74C108,-755.74 108,-730.35 108,-730.35"/>
<polygon fill="black" stroke="black" points="111.5,-730.35 108,-720.35 104.5,-730.35 111.5,-730.35"/>
</g>
<!-- E -->
<g id="node5" class="node">
<title>E</title>
<polygon fill="none" stroke="black" points="216,-612 0,-612 0,-540 216,-540 216,-612"/>
<text text-anchor="middle" x="108" y="-572.3" font-family="Times New Roman,serif" font-size="14.00">Compute Error Value 1</text>
</g>
<!-- D&#45;&gt;E -->
<g id="edge4" class="edge">
<title>D&#45;&gt;E</title>
<path fill="none" stroke="black" d="M108,-647.74C108,-647.74 108,-622.35 108,-622.35"/>
<polygon fill="black" stroke="black" points="111.5,-622.35 108,-612.35 104.5,-622.35 111.5,-622.35"/>
</g>
<!-- F -->
<g id="node6" class="node">
<title>F</title>
<polygon fill="none" stroke="black" points="216,-504 0,-504 0,-432 216,-432 216,-504"/>
<text text-anchor="middle" x="108" y="-464.3" font-family="Times New Roman,serif" font-size="14.00">Parameter Estimation</text>
</g>
<!-- E&#45;&gt;F -->
<g id="edge5" class="edge">
<title>E&#45;&gt;F</title>
<path fill="none" stroke="black" d="M108,-539.74C108,-539.74 108,-514.35 108,-514.35"/>
<polygon fill="black" stroke="black" points="111.5,-514.35 108,-504.35 104.5,-514.35 111.5,-514.35"/>
</g>
<!-- G -->
<g id="node7" class="node">
<title>G</title>
<polygon fill="none" stroke="black" points="195,-396 87,-360 195,-324 303,-360 195,-396"/>
<text text-anchor="middle" x="195" y="-356.3" font-family="Times New Roman,serif" font-size="14.00">Check Error Value 1</text>
</g>
<!-- F&#45;&gt;G -->
<g id="edge6" class="edge">
<title>F&#45;&gt;G</title>
<path fill="none" stroke="black" d="M151.5,-431.74C151.5,-431.74 151.5,-391.52 151.5,-391.52"/>
<polygon fill="black" stroke="black" points="155,-391.52 151.5,-381.52 148,-391.52 155,-391.52"/>
</g>
<!-- G&#45;&gt;B -->
<g id="edge11" class="edge">
<title>G&#45;&gt;B</title>
<path fill="none" stroke="black" d="M259.5,-374.72C259.5,-374.72 259.5,-853.63 259.5,-853.63"/>
<polygon fill="black" stroke="black" points="256,-853.63 259.5,-863.63 263,-853.63 256,-853.63"/>
<text text-anchor="start" x="187.5" y="-632.98" font-family="Times New Roman,serif" font-size="14.00">Error 1 </text>
<text text-anchor="middle" x="223.5" y="-617.98" font-family="Times New Roman,serif" font-size="14.00">eq epsilon_1</text>
</g>
<!-- H -->
<g id="node8" class="node">
<title>H</title>
<polygon fill="none" stroke="black" points="303,-288 87,-288 87,-216 303,-216 303,-288"/>
<text text-anchor="middle" x="195" y="-248.3" font-family="Times New Roman,serif" font-size="14.00">Computer Error Value 2</text>
</g>
<!-- G&#45;&gt;H -->
<g id="edge7" class="edge">
<title>G&#45;&gt;H</title>
<path fill="none" stroke="black" d="M195,-323.74C195,-323.74 195,-298.35 195,-298.35"/>
<polygon fill="black" stroke="black" points="198.5,-298.35 195,-288.35 191.5,-298.35 198.5,-298.35"/>
</g>
<!-- I -->
<g id="node9" class="node">
<title>I</title>
<polygon fill="none" stroke="black" points="195,-180 87,-144 195,-108 303,-144 195,-180"/>
<text text-anchor="middle" x="195" y="-140.3" font-family="Times New Roman,serif" font-size="14.00">Check Error Value 2</text>
</g>
<!-- H&#45;&gt;I -->
<g id="edge8" class="edge">
<title>H&#45;&gt;I</title>
<path fill="none" stroke="black" d="M195,-215.74C195,-215.74 195,-190.35 195,-190.35"/>
<polygon fill="black" stroke="black" points="198.5,-190.35 195,-180.35 191.5,-190.35 198.5,-190.35"/>
</g>
<!-- J -->
<g id="node10" class="node">
<title>J</title>
<polygon fill="none" stroke="black" points="371,-72 155,-72 155,0 371,0 371,-72"/>
<text text-anchor="middle" x="263" y="-32.3" font-family="Times New Roman,serif" font-size="14.00">End</text>
</g>
<!-- I&#45;&gt;J -->
<g id="edge9" class="edge">
<title>I&#45;&gt;J</title>
<path fill="none" stroke="black" d="M229,-119.22C229,-119.22 229,-82.13 229,-82.13"/>
<polygon fill="black" stroke="black" points="232.5,-82.13 229,-72.13 225.5,-82.13 232.5,-82.13"/>
</g>
<!-- J&#45;&gt;A -->
<g id="edge10" class="edge">
<title>J&#45;&gt;A</title>
<path fill="none" stroke="black" d="M337,-72.04C337,-72.04 337,-961.97 337,-961.97"/>
<polygon fill="black" stroke="black" points="333.5,-961.97 337,-971.97 340.5,-961.97 333.5,-961.97"/>
<text text-anchor="start" x="265" y="-535.8" font-family="Times New Roman,serif" font-size="14.00">Error 2 </text>
<text text-anchor="middle" x="301" y="-520.8" font-family="Times New Roman,serif" font-size="14.00">eq epsilon_2</text>
</g>
</g>
</svg>
