<?xml version="1.0" encoding="UTF-8" standalone="no"?>
<!DOCTYPE svg PUBLIC "-//W3C//DTD SVG 1.1//EN"
 "http://www.w3.org/Graphics/SVG/1.1/DTD/svg11.dtd">
<!-- Generated by graphviz version 3.0.0 (20220226.1711)
 -->
<!-- Title: Beziehungen Pages: 1 -->
<svg width="146pt" height="218pt"
 viewBox="0.00 0.00 146.20 218.00" xmlns="http://www.w3.org/2000/svg" xmlns:xlink="http://www.w3.org/1999/xlink">
<g id="graph0" class="graph" transform="scale(1 1) rotate(0) translate(4 214)">
<title>Beziehungen</title>
<polygon fill="white" stroke="transparent" points="-4,4 -4,-214 142.2,-214 142.2,4 -4,4"/>
<!-- Jutta -->
<g id="node1" class="node">
<title>Jutta</title>
<ellipse fill="none" stroke="black" cx="109.2" cy="-192" rx="27.1" ry="18"/>
<text text-anchor="middle" x="109.2" y="-188.3" font-family="Times New Roman,serif" font-size="14.00">Jutta</text>
</g>
<!-- Franz -->
<g id="node2" class="node">
<title>Franz</title>
<ellipse fill="none" stroke="black" cx="31.2" cy="-105" rx="31.4" ry="18"/>
<text text-anchor="middle" x="31.2" y="-101.3" font-family="Times New Roman,serif" font-size="14.00">Franz</text>
</g>
<!-- Jutta&#45;&gt;Franz -->
<g id="edge1" class="edge">
<title>Jutta&#45;&gt;Franz</title>
<path fill="none" stroke="black" d="M82.48,-187.98C62.46,-184.17 36.33,-175.53 23.2,-156 18.57,-149.13 18.44,-140.54 20.11,-132.43"/>
<polygon fill="black" stroke="black" points="23.54,-133.16 23,-122.58 16.83,-131.2 23.54,-133.16"/>
<text text-anchor="middle" x="35.2" y="-144.8" font-family="Times New Roman,serif" font-size="14.00">liebt</text>
</g>
<!-- Franz&#45;&gt;Jutta -->
<g id="edge4" class="edge">
<title>Franz&#45;&gt;Jutta</title>
<path fill="none" stroke="black" d="M45.15,-121.21C57.31,-134.46 75.1,-153.84 88.84,-168.82"/>
<polygon fill="black" stroke="black" points="86.27,-171.19 95.61,-176.19 91.43,-166.46 86.27,-171.19"/>
<text text-anchor="middle" x="86.2" y="-144.8" font-family="Times New Roman,serif" font-size="14.00">liebt</text>
</g>
<!-- Bernd -->
<g id="node3" class="node">
<title>Bernd</title>
<ellipse fill="none" stroke="black" cx="104.2" cy="-18" rx="32.49" ry="18"/>
<text text-anchor="middle" x="104.2" y="-14.3" font-family="Times New Roman,serif" font-size="14.00">Bernd</text>
</g>
<!-- Franz&#45;&gt;Bernd -->
<g id="edge3" class="edge">
<title>Franz&#45;&gt;Bernd</title>
<path fill="none" stroke="black" d="M22.58,-87.48C18.45,-77.1 15.68,-63.86 22.2,-54 31.43,-40.01 47.53,-31.6 63.02,-26.54"/>
<polygon fill="black" stroke="black" points="64.39,-29.79 73.04,-23.68 62.47,-23.06 64.39,-29.79"/>
<text text-anchor="middle" x="36.7" y="-57.8" font-family="Times New Roman,serif" font-size="14.00">hasst</text>
</g>
<!-- Bernd&#45;&gt;Jutta -->
<g id="edge5" class="edge">
<title>Bernd&#45;&gt;Jutta</title>
<path fill="none" stroke="black" d="M108.88,-35.96C110.23,-41.65 111.53,-48.05 112.2,-54 116.46,-91.77 114.23,-135.77 111.96,-163.5"/>
<polygon fill="black" stroke="black" points="108.45,-163.36 111.06,-173.63 115.43,-163.98 108.45,-163.36"/>
<text text-anchor="middle" x="126.2" y="-101.3" font-family="Times New Roman,serif" font-size="14.00">liebt</text>
</g>
<!-- Bernd&#45;&gt;Franz -->
<g id="edge2" class="edge">
<title>Bernd&#45;&gt;Franz</title>
<path fill="none" stroke="black" d="M90.89,-34.49C79.8,-47.4 63.84,-65.99 51.21,-80.7"/>
<polygon fill="black" stroke="black" points="48.45,-78.54 44.59,-88.41 53.76,-83.1 48.45,-78.54"/>
<text text-anchor="middle" x="85.7" y="-57.8" font-family="Times New Roman,serif" font-size="14.00">hasst</text>
</g>
</g>
</svg>
